<svg viewBox="0 0 80 81" fill="none" xmlns="http://www.w3.org/2000/svg">
<path d="M11 25.3594C11 17.9812 16.9812 12 24.3594 12H54.6406C62.0188 12 68 17.9812 68 25.3594V55.6406C68 63.0188 62.0188 69 54.6406 69H24.3594C16.9812 69 11 63.0188 11 55.6406V25.3594Z" fill="#285154"/>
<path d="M44.2871 14.4492L35.9375 17.7891V50.8535C35.9375 58.3125 31.5957 59.793 29.1465 61.207L24.1367 63.7676L25.25 65.8828C40.9473 59.0918 44.2871 54.5273 44.2871 49.7402V14.4492Z" fill="white"/>
<path d="M54.6406 29.1445C54.6406 30.6202 53.4444 31.8164 51.9688 31.8164C50.4931 31.8164 49.2969 30.6202 49.2969 29.1445C49.2969 27.6689 50.4931 26.4727 51.9688 26.4727C53.4444 26.4727 54.6406 27.6689 54.6406 29.1445Z" fill="white"/>
<path d="M54.6406 42.9492C54.6406 44.4249 53.4444 45.6211 51.9688 45.6211C50.4931 45.6211 49.2969 44.4249 49.2969 42.9492C49.2969 41.4736 50.4931 40.2773 51.9688 40.2773C53.4444 40.2773 54.6406 41.4736 54.6406 42.9492Z" fill="white"/>
</svg>
